{
  "accessors": [
    {
      "bufferView": 2,
      "componentType": 5126,
      "count": 569,
      "max": [
        0.7625694870948792,
        0.7238248586654663,
        0.7983012795448303
      ],
      "min": [
        -1.327696442604065,
        -0.7238248586654663,
        -1.9768935441970825
      ],
      "type": "VEC3"
    },
    {
      "bufferView": 2,
      "byteOffset": 6828,
      "componentType": 5126,
      "count": 569,
      "max": [
        0.9999744892120361,
        0.9992438554763794,
        0.998964250087738
      ],
      "min": [
        -1.0,
        -0.9992438554763794,
        -0.999274492263794
      ],
      "type": "VEC3"
    },
    {
      "bufferView": 1,
      "componentType": 5126,
      "count": 569,
      "max": [
        0.8750002384185791,
        1.000000238418579
      ],
      "min": [
        0.1250000298023224,
        0.0
      ],
      "type": "VEC2"
    },
    {
      "bufferView": 0,
      "componentType": 5125,
      "count": 2400,
      "type": "SCALAR"
    },
    {
      "bufferView": 2,
      "byteOffset": 13656,
      "componentType": 5126,
      "count": 441,
      "max": [
        0.4062568247318268,
        -0.3897319436073303,
        0.4863624572753906
      ],
      "min": [
        -0.40609943866729736,
        -0.8603472709655762,
        0.03665164113044739
      ],
      "type": "VEC3"
    },
    {
      "bufferView": 2,
      "byteOffset": 18948,
      "componentType": 5126,
      "count": 441,
      "max": [
        0.9578750133514404,
        0.9966229796409607,
        0.9954621195793152
      ],
      "min": [
        -0.9557701349258423,
        -0.9953951835632324,
        -0.9706864953041077
      ],
      "type": "VEC3"
    },
    {
      "bufferView": 1,
      "byteOffset": 4552,
      "componentType": 5126,
      "count": 441,
      "max": [
        0.8750001192092896,
        1.0000001192092896
      ],
      "min": [
        0.1250000149011612,
        0.0
      ],
      "type": "VEC2"
    },
    {
      "bufferView": 0,
      "byteOffset": 9600,
      "componentType": 5125,
      "count": 2112,
      "type": "SCALAR"
    },
    {
      "bufferView": 2,
      "byteOffset": 24240,
      "componentType": 5126,
      "count": 705,
      "max": [
        0.8024900555610657,
        0.7637227177619934,
        0.8381879329681396
      ],
      "min": [
        -1.367531180381775,
        -0.7637227177619934,
        -2.015937328338623
      ],
      "type": "VEC3"
    },
    {
      "bufferView": 2,
      "byteOffset": 32700,
      "componentType": 5126,
      "count": 705,
      "max": [
        1.0,
        0.999262809753418,
        0.9993436336517334
      ],
      "min": [
        -0.9999756813049316,
        -0.999262809753418,
        -0.9989753365516663
      ],
      "type": "VEC3"
    },
    {
      "bufferView": 1,
      "byteOffset": 8080,
      "componentType": 5126,
      "count": 705,
      "max": [
        0.8750002384185791,
        1.000000238418579
      ],
      "min": [
        0.1250000149011612,
        0.0
      ],
      "type": "VEC2"
    },
    {
      "bufferView": 0,
      "byteOffset": 18048,
      "componentType": 5125,
      "count": 2976,
      "type": "SCALAR"
    },
    {
      "bufferView": 2,
      "byteOffset": 41160,
      "componentType": 5126,
      "count": 729,
      "max": [
        0.33143213391304016,
        -0.6836680173873901,
        0.47001445293426514
      ],
      "min": [
        -0.0406499058008194,
        -0.8255524039268494,
        0.3036802411079407
      ],
      "type": "VEC3"
    },
    {
      "bufferView": 2,
      "byteOffset": 49908,
      "componentType": 5126,
      "count": 729,
      "max": [
        0.9998739957809448,
        0.9933000206947327,
        0.9930991530418396
      ],
      "min": [
        -0.9999570846557617,
        -0.9935386180877686,
        -0.9922732710838318
      ],
      "type": "VEC3"
    },
    {
      "bufferView": 1,
      "byteOffset": 13720,
      "componentType": 5126,
      "count": 729,
      "max": [
        0.8750001192092896,
        1.0000001192092896
      ],
      "min": [
        0.1250000149011612,
        0.0
      ],
      "type": "VEC2"
    },
    {
      "bufferView": 0,
      "byteOffset": 29952,
      "componentType": 5125,
      "count": 3840,
      "type": "SCALAR"
    }
  ],
  "asset": {
    "extras": {
      "author": "axaloty.gamer (https://sketchfab.com/loty_3dmodels)",
      "license": "CC-BY-4.0 (http://creativecommons.org/licenses/by/4.0/)",
      "source": "https://sketchfab.com/3d-models/amogus-54cc100fd1be4cfba5afba3dc8f35476",
      "title": "Amogus"
    },
    "generator": "Sketchfab-12.68.0",
    "version": "2.0"
  },
  "bufferViews": [
    {
      "buffer": 0,
      "byteLength": 45312,
      "name": "floatBufferViews",
      "target": 34963
    },
    {
      "buffer": 0,
      "byteLength": 19552,
      "byteOffset": 45312,
      "byteStride": 8,
      "name": "floatBufferViews",
      "target": 34962
    },
    {
      "buffer": 0,
      "byteLength": 58656,
      "byteOffset": 64864,
      "byteStride": 12,
      "name": "floatBufferViews",
      "target": 34962
    }
  ],
  "buffers": [
    {
      "byteLength": 123520,
      "uri": "scene.bin"
    }
  ],
  "materials": [
    {
      "doubleSided": true,
      "name": "Material.001",
      "pbrMetallicRoughness": {
        "baseColorFactor": [
          0.637597,
          0.822786,
          0.930111,
          1.0
        ],
        "metallicFactor": 0.0,
        "roughnessFactor": 0.8230904222141264
      }
    },
    {
      "doubleSided": true,
      "name": "Material.002",
      "pbrMetallicRoughness": {
        "baseColorFactor": [
          0.381326,
          0.545725,
          0.637597,
          1.0
        ],
        "metallicFactor": 0.0,
        "roughnessFactor": 0.8843042930254457
      }
    },
    {
      "name": "Material.004",
      "pbrMetallicRoughness": {
        "baseColorFactor": [
          0.0,
          0.0,
          0.0,
          1.0
        ],
        "metallicFactor": 0.0
      }
    },
    {
      "doubleSided": true,
      "name": "Material.003",
      "pbrMetallicRoughness": {
        "baseColorFactor": [
          0.863157,
          0.964686,
          0.964686,
          1.0
        ],
        "metallicFactor": 0.0,
        "roughnessFactor": 0.7891162200590817
      }
    }
  ],
  "meshes": [
    {
      "name": "Cube.001_Material.001_0",
      "primitives": [
        {
          "attributes": {
            "NORMAL": 1,
            "POSITION": 0,
            "TEXCOORD_0": 2
          },
          "indices": 3,
          "material": 0,
          "mode": 4
        }
      ]
    },
    {
      "name": "Cube.001_Material.002_0",
      "primitives": [
        {
          "attributes": {
            "NORMAL": 5,
            "POSITION": 4,
            "TEXCOORD_0": 6
          },
          "indices": 7,
          "material": 1,
          "mode": 4
        }
      ]
    },
    {
      "name": "Cube.001_Material.004_0",
      "primitives": [
        {
          "attributes": {
            "NORMAL": 9,
            "POSITION": 8,
            "TEXCOORD_0": 10
          },
          "indices": 11,
          "material": 2,
          "mode": 4
        }
      ]
    },
    {
      "name": "Cube.001_Material.003_0",
      "primitives": [
        {
          "attributes": {
            "NORMAL": 13,
            "POSITION": 12,
            "TEXCOORD_0": 14
          },
          "indices": 15,
          "material": 3,
          "mode": 4
        }
      ]
    }
  ],
  "nodes": [
    {
      "children": [
        1
      ],
      "matrix": [
        1.0,
        0.0,
        0.0,
        0.0,
        0.0,
        2.220446049250313e-16,
        -1.0,
        0.0,
        0.0,
        1.0,
        2.220446049250313e-16,
        0.0,
        0.0,
        0.0,
        0.0,
        1.0
      ],
      "name": "Sketchfab_model"
    },
    {
      "children": [
        2
      ],
      "matrix": [
        1.0,
        0.0,
        0.0,
        0.0,
        0.0,
        0.0,
        1.0,
        0.0,
        0.0,
        -1.0,
        0.0,
        0.0,
        0.0,
        0.0,
        0.0,
        1.0
      ],
      "name": "3b67b0484fc349d4a3755f3423814560.fbx"
    },
    {
      "children": [
        3
      ],
      "name": "RootNode"
    },
    {
      "children": [
        4,
        5,
        6,
        7
      ],
      "matrix": [
        36.80893325805664,
        0.0,
        0.0,
        0.0,
        0.0,
        -4.3571661024588365e-06,
        -26.74409484863246,
        0.0,
        0.0,
        36.80893325805616,
        -5.9969364140911665e-06,
        0.0,
        7.7258782386779785,
        19.160173416137695,
        2.5743386231624754e-06,
        1.0
      ],
      "name": "Cube.001"
    },
    {
      "mesh": 0,
      "name": "Cube.001_Material.001_0"
    },
    {
      "mesh": 1,
      "name": "Cube.001_Material.002_0"
    },
    {
      "mesh": 2,
      "name": "Cube.001_Material.004_0"
    },
    {
      "mesh": 3,
      "name": "Cube.001_Material.003_0"
    }
  ],
  "scene": 0,
  "scenes": [
    {
      "name": "Sketchfab_Scene",
      "nodes": [
        0
      ]
    }
  ]
}
